<svg width="87" height="248" viewBox="0 0 87 248" fill="none" xmlns="http://www.w3.org/2000/svg">
<path d="M29.6 247.85C35.76 247.85 40.9867 246.73 45.28 244.49C49.3867 242.437 52.56 239.263 54.8 234.97C56.8533 230.677 57.88 225.45 57.88 219.29V155.73C57.88 147.89 59.4667 142.197 62.64 138.65C65.6267 135.103 71.04 133.237 78.88 133.05C81.3067 133.05 83.2667 132.117 84.76 130.25C86.2533 128.383 87 126.237 87 123.81C87 121.197 86.2533 119.05 84.76 117.37C83.2667 115.69 81.3067 114.757 78.88 114.57C71.04 114.383 65.6267 112.517 62.64 108.97C59.4667 105.423 57.88 99.8233 57.88 92.17V28.61C57.88 19.2767 55.4533 12.1833 50.6 7.32999C45.7467 2.47666 38.7467 0.0499878 29.6 0.0499878H10.28C7.48 0.0499878 5.14667 0.889988 3.28 2.56999C1.41333 4.24999 0.479996 6.39666 0.479996 9.00999C0.479996 11.4367 1.32 13.5833 3 15.45C4.49333 17.13 6.54666 17.97 9.16 17.97H23.16C27.08 17.97 30.0667 18.9967 32.12 21.05C34.1733 23.1033 35.2 26.2767 35.2 30.57V94.41C35.2 100.01 36.32 105.143 38.56 109.81C40.8 114.29 43.7867 117.837 47.52 120.45C51.2533 123.063 55.64 124.37 60.68 124.37V123.25C55.64 123.25 51.2533 124.557 47.52 127.17C43.7867 129.783 40.8 133.423 38.56 138.09C36.32 142.57 35.2 147.61 35.2 153.21V217.33C35.2 221.623 34.1733 224.797 32.12 226.85C30.0667 228.903 27.08 229.93 23.16 229.93H9.16C6.54666 229.93 4.49333 230.77 3 232.45C1.32 234.317 0.479996 236.463 0.479996 238.89C0.479996 241.317 1.41333 243.37 3.28 245.05C5.14667 246.917 7.48 247.85 10.28 247.85H29.6Z" fill="#F5E8CB"/>
</svg>
