<svg width="87" height="248" viewBox="0 0 87 248" fill="none" xmlns="http://www.w3.org/2000/svg">
<path d="M57.56 247.85C51.4 247.85 46.1733 246.73 41.88 244.49C37.7733 242.437 34.6 239.263 32.36 234.97C30.3067 230.677 29.28 225.45 29.28 219.29V155.73C29.28 147.89 27.6933 142.197 24.52 138.65C21.5333 135.103 16.12 133.237 8.28 133.05C5.85334 133.05 3.89334 132.117 2.4 130.25C0.90667 128.383 0.160004 126.237 0.160004 123.81C0.160004 121.197 0.90667 119.05 2.4 117.37C3.89334 115.69 5.85334 114.757 8.28 114.57C16.12 114.383 21.5333 112.517 24.52 108.97C27.6933 105.423 29.28 99.8233 29.28 92.17V28.61C29.28 19.2767 31.7067 12.1833 36.56 7.32999C41.4133 2.47666 48.4133 0.0499878 57.56 0.0499878H76.88C79.68 0.0499878 82.0133 0.889988 83.88 2.56999C85.7467 4.24999 86.68 6.39666 86.68 9.00999C86.68 11.4367 85.84 13.5833 84.16 15.45C82.6667 17.13 80.6133 17.97 78 17.97H64C60.08 17.97 57.0933 18.9967 55.04 21.05C52.9867 23.1033 51.96 26.2767 51.96 30.57V94.41C51.96 100.01 50.84 105.143 48.6 109.81C46.36 114.29 43.3733 117.837 39.64 120.45C35.9067 123.063 31.52 124.37 26.48 124.37V123.25C31.52 123.25 35.9067 124.557 39.64 127.17C43.3733 129.783 46.36 133.423 48.6 138.09C50.84 142.57 51.96 147.61 51.96 153.21V217.33C51.96 221.623 52.9867 224.797 55.04 226.85C57.0933 228.903 60.08 229.93 64 229.93H78C80.6133 229.93 82.6667 230.77 84.16 232.45C85.84 234.317 86.68 236.463 86.68 238.89C86.68 241.317 85.7467 243.37 83.88 245.05C82.0133 246.917 79.68 247.85 76.88 247.85H57.56Z" fill="#F5E8CB"/>
</svg>
